<svg width="184" height="49.14" xmlns="http://www.w3.org/2000/svg">
 <defs>
  <style>.cls-1{fill:#bf0024;fill-rule:evenodd;}</style>
 </defs>
 <title>Mapfre</title>
 <g>
  <title>background</title>
  <rect fill="none" id="canvas_background" height="51.14" width="186" y="-1" x="-1"/>
 </g>
 <g>
  <title>Layer 1</title>
  <path id="svg_1" d="m23.5,6.38a18.34,18.34 0 1 1 -18.35,18.34a18.34,18.34 0 0 1 18.35,-18.34zm0,1.74a16.6,16.6 0 1 0 16.59,16.6a16.6,16.6 0 0 0 -16.59,-16.6z" class="cls-1"/>
  <path id="svg_2" d="m24.4,28.27l0,5.63l-1.8,0l0,-5.63l-8.38,0a2.71,2.71 0 0 1 -2.84,-2.82a1.9,1.9 0 0 1 0,-0.37a10.5,10.5 0 0 1 1.27,-3.46a10.62,10.62 0 0 1 2.38,-2.84a3.06,3.06 0 0 1 2.3,-0.56a3,3 0 0 1 1.45,-1.76a2.53,2.53 0 0 1 0.36,-0.16a12.74,12.74 0 0 1 8.67,0a3.33,3.33 0 0 1 1.78,1.9a2.65,2.65 0 0 1 2.18,0.47a11.62,11.62 0 0 1 2.52,2.95a10.7,10.7 0 0 1 1.26,3.46a1.82,1.82 0 0 1 0,0.37a2.71,2.71 0 0 1 -1.36,2.46a2.66,2.66 0 0 1 -1.49,0.36l-8.3,0zm6.35,-8.14a0.92,0.92 0 0 0 -1,-0.06a0.94,0.94 0 0 0 -0.38,0.41l-3,5.27a0.46,0.46 0 0 0 0.42,0.71l6.07,0a0.85,0.85 0 0 0 0.53,-0.12a0.9,0.9 0 0 0 0.46,-0.87a0.34,0.34 0 0 0 0,-0.09a8.66,8.66 0 0 0 -1,-2.87a8.81,8.81 0 0 0 -2,-2.37l0,0l-0.1,-0.01zm-14.51,0l0,0a8.77,8.77 0 0 0 -2,2.37a8.91,8.91 0 0 0 -1.06,2.87l0,0.09a0.9,0.9 0 0 0 0.45,0.87a0.88,0.88 0 0 0 0.54,0.12l6.07,0a0.46,0.46 0 0 0 0.43,-0.23a0.44,0.44 0 0 0 0,-0.48l-3,-5.27a0.88,0.88 0 0 0 -0.38,-0.41a0.93,0.93 0 0 0 -1,0.06l-0.05,0.01zm11,-2.12l0,0a11,11 0 0 0 -7.45,0a0.19,0.19 0 0 0 -0.09,0a1.1,1.1 0 0 0 -0.65,1a1.14,1.14 0 0 0 0.2,0.65l3.75,6.49a0.57,0.57 0 0 0 0.51,0.33a0.55,0.55 0 0 0 0.5,-0.32l3.75,-6.45a1.18,1.18 0 0 0 0.21,-0.66a1.12,1.12 0 0 0 -0.7,-1.05l-0.03,0.01z" class="cls-1"/>
  <polygon id="svg_3" points="56.290000915527344,15.419998168945312 60.77000427246094,24.599998474121094 65.25,15.419998168945312 72.02000427246094,15.419998168945312 72.02000427246094,33.769996643066406 65.25,33.769996643066406 65.25,24.599998474121094 60.77000427246094,33.769996643066406 56.290000915527344,24.599998474121094 56.290000915527344,33.769996643066406 49.519996643066406,33.769996643066406 49.519996643066406,15.419998168945312 56.290000915527344,15.419998168945312 " class="cls-1"/>
  <path id="svg_4" d="m85.45,18.17l-2.75,9.58l5.5,0l-2.75,-9.58zm-11.26,15.6l5.27,-18.35l12,0l5.24,18.35l-6.77,0l-0.87,-3l-7.23,0l-0.86,3l-6.78,0z" class="cls-1"/>
  <path id="svg_5" d="m107.21,17.53c1.53,0 3,0.82 3,2.48a3,3 0 0 1 -3,3l-1.47,0l0,-5.48l1.47,0zm2.85,-2.1l-11.2,0l0,18.34l6.77,0l0,-7.64l5.9,0a5.35,5.35 0 0 0 0,-10.7l-1.47,0z" class="cls-1"/>
  <polygon id="svg_6" points="119.22999572753906,15.419998168945312 137.24000549316406,15.419998168945312 137.24000549316406,18.439998626708984 126,18.439998626708984 126,23.099998474121094 137.24000549316406,23.099998474121094 137.24000549316406,26.110000610351562 126,26.110000610351562 126,33.769996643066406 119.22999572753906,33.769996643066406 119.22999572753906,15.419998168945312 " class="cls-1"/>
  <polygon id="svg_7" points="166.94000244140625,30.76000213623047 178.17999267578125,30.76000213623047 178.17999267578125,33.769996643066406 160.1699981689453,33.769996643066406 160.1699981689453,15.419998168945312 178.17999267578125,15.419998168945312 178.17999267578125,18.43000030517578 166.94000244140625,18.43000030517578 166.94000244140625,23.099998474121094 178.17999267578125,23.099998474121094 178.17999267578125,26.110000610351562 166.94000244140625,26.110000610351562 166.94000244140625,30.76000213623047 " class="cls-1"/>
  <path id="svg_8" d="m148,17.54c1.49,0 3,0.81 3,2.47a3,3 0 0 1 -3,3l-1.47,0l0,-5.47l1.47,0zm9.63,11.46l0,0zm0,0.15l0,-0.15a4.59,4.59 0 0 0 -4.63,-4.4a4.59,4.59 0 1 0 0,-9.17l-13.39,0l0,18.34l6.88,0l0,-7.6l1.51,0a3,3 0 0 1 3,3l0,4.59l6.66,0l-0.03,-4.61z" class="cls-1"/>
 </g>
</svg>