<svg xmlns="http://www.w3.org/2000/svg" xmlns:xlink="http://www.w3.org/1999/xlink" width="152" height="48" viewBox="0 0 152 48">
    <defs>
        <path id="a" d="M0 47.78h151.951V.942H0z"/>
    </defs>
    <g fill="none" fill-rule="evenodd">
        <path fill="#D0D2D3" d="M24.387 7.591a6.779 6.779 0 0 0-13.554.024L0 7.633l.806 1.808 16.876 38.34L34.584 9.013l.635-1.44-10.832.018z"/>
        <path fill="#00467F" d="M7.622 13.967c2.533 1.203 4.403.1 4.403.1s-3.096 2.224-1.088 6.148l-1.778.934 2.449 5.469s1.862-.148 2.27-1.037c0 0-1.113-2.437-.583-3.457 0 0 .393.242 1.162.423.855.2 1.802.205 2.827-.386.354-.203.514-.492.529-.066.014.428.854 1.99-.84 4.176s-3.732 3.936-3.274 5.037l4.166 9.411 6.984-15.805s-1.207.393-1.764-.43c-.518-.768-.34-1.974.807-2.621 0 0-.39-1.563.298-1.382 0 0 .27.227.549.376.279.15 1.232 1.084 1.969-.582.575-1.302 3.077-7.413 4.2-10.124h-1.704l-3.813 8.726s.37-1.164.44-1.895c.225-2.008-.588-2.877-.588-2.877a2.639 2.639 0 0 0 .013-.316h.003c.001-.236-.02-.45-.06-.64h-.006a3.095 3.095 0 0 0-.046-.208c-.41-1.372-1.802-1.512-1.802-1.512-.47-.081-.58-.353-1.185-.41-.911-.084-1.911.399-1.911.399s-.793.467-.93-.45c-.101-.684.819-.987.819-.987.029-.032.699-.23.438-.847.273-.348.935-1.274.339-1.876-.58-.586-.85-1.323-1.607-1.541-.855-.247-1.168-.05-1.168-.05-1.168-.998-1.838-.008-1.838-.008-.964.108-.562 1.448-.562 1.448-.924.622-.225 1.47-.242 1.647-.017.18-.304.403-.507.78-.203.375.256.805.256.805s.271.298-.399.117c-.67-.182-1.318-.757-2.913.258-2.068 1.315-3.837 1.168-3.837 1.168s-1.336-1.085-2.2-1.378c-.845-.29-1.375.049-1.52.631-.087.345.079.918.644.983 0 0-.172.117-.227.424-.104.587 1.135 1.425 2.827 1.425"/>
        <path fill="#D0D2D3" d="M15.191 17.869s-.967-.082-.989-.621c-.025-.603 2.252 1.093 2.952-.385.639-1.348.446-3.766 2.49-4.642 0 0-1.482.144-1.137-2.17 0 0 .734-.184.812-.635.08-.452-.086-.502-.55-.415 0 0-.428-.233-.551-1.155 0 0-1.1-.034-1.538-.475 0 0-.88.168-.378 1.356 0 0 .196.226-.238.574-.434.349-.062.349.102.666.166.315-.853.92.698 1.483 0 0-.422.119-1.084.077-.661-.043-1.586-.982-2.818-.458-1.401.596-2.724 1.593-5.138 1.384 0 0-.69-.624-.771-.74-.072-.1-.328-.135-.413-.14 0 0-1.276-.855-1.482-.688 0 0-.006.315.298.413 0 0-.626-.139-.65-.08 0 0-.116.28.426.343 0 0 1.01.297 1.284.818l.044.08c.009.018.014.042.014.07 0 .095-.052.217-.122.185-.091-.041-.72-.34-.978-.293-.158.039-.195.236.157.403 0 0 .704.28.87.427 0 0 .5.336 1.028.1l.069.014.875.19c.844.188 1.681.317 3.045-.17 0 0 3.972-1.593 1.313 1.079 0 0-3.435 3.403-.037 6.06 0 0 3.505 2.797 4.824-.007 0 0 .84-2.189-2.427-2.648"/>
        <path fill="#00467F" d="M16.839 8.696l-.031.011a.212.212 0 0 0-.158.202c0 .118.095.214.212.213.1 0 .178-.069.204-.16.024-.036.087-.09.224-.034.169.07.204.045.247-.082.04-.127-.411-.228-.698-.15"/>
        <path fill="#D0D2D3" d="M23.28 12.923c-.32-.181-1.16-.369-1.16-.369s-.135-.044-.171.01c-.62.948-2.616 1.085-2.6 1.54.016.453 1.34.575 1.15.935-.134.25-.517.191-.864.07a.374.374 0 0 1-.667-.036c-.028.096-.1.152-.197.223-.695.494-.634 1.804-.634 1.804.333-.281 1.775-.062 1.775-.062l.662-1.295c.35-1.365 2.029-.216 1.98.161-.028.19-.324.135-.61.031a.375.375 0 1 1-.727-.192c-1.002.462-.172 2.782-.172 2.782l1.13-.76c2.217-.958 1.104-4.842 1.104-4.842"/>
        <path fill="#00467F" d="M42.006 23.888c-1.8 0-2.992-.202-4.427-.716v-3.307c1.269.478 2.59.809 3.95.809 1.23 0 1.708-.367 1.708-1.047 0-.992-1.397-1.268-2.847-1.69-1.56-.459-3.196-1.36-3.196-3.93 0-2.609 1.56-4.408 5.253-4.408 1.415 0 2.424.201 3.562.532v3.196c-1.211-.277-2.35-.46-3.342-.46-1.487 0-1.78.405-1.78.937 0 .864 1.174 1.066 2.48 1.434 1.651.457 3.543 1.284 3.543 4.15 0 2.755-1.855 4.5-4.904 4.5M53.521 20.416v-1.56a5.21 5.21 0 0 0-.973-.11c-1.249 0-1.616.55-1.616 1.247 0 .68.477 1.103 1.231 1.103.55 0 1.029-.312 1.358-.68zM48.6 12.72s1.543-.569 3.857-.569 4.574.68 4.574 4.61v6.851h-2.444l-.404-1.212h-.111s-.935 1.45-2.883 1.45c-2.075 0-3.562-1.1-3.562-3.599 0-2.645 1.744-3.765 4.187-3.765a8.39 8.39 0 0 1 1.707.184v-.35c0-.679-.33-1.34-1.854-1.34s-3.067.496-3.067.496V12.72zM62.08 23.612h-3.526v-11.24h2.442l.386 1.285.019-.017h.129c.88-.992 1.964-1.47 3.103-1.47 2.332 0 3.82 1.47 3.82 4.132v7.31H64.91v-7.016c0-1.028-.404-1.432-1.36-1.432-.459 0-1.01.183-1.469.771v7.677zM83.404 13.29c-.644-.22-1.837-.404-2.737-.404-2.204 0-2.737.882-2.737 3.784 0 3.068.587 3.948 2.792 3.948.845 0 2.038-.184 2.719-.496v3.104c-.901.442-2.168.662-3.27.662-4.187 0-6.281-2.351-6.281-7.237 0-4.517 2.02-7.07 6.538-7.07.992 0 2.203.147 2.976.458v3.251zM88.289 23.612h-3.527v-11.24h2.443l.477 1.947h.203c.533-1.433 1.359-2.168 2.332-2.168.44 0 .735.092.973.203v3.049a4.37 4.37 0 0 0-.807-.093c-1.047 0-1.654.441-2.094 1.488v6.814z"/>
        <mask id="b" fill="#fff">
            <use xlink:href="#a"/>
        </mask>
        <path fill="#00467F" d="M92.33 23.611h3.617v-11.24H92.33v11.24zm1.818-12.065c-1.324 0-1.93-.386-1.93-1.452 0-.936.606-1.45 1.93-1.45 1.34 0 1.91.514 1.91 1.45 0 .974-.57 1.452-1.91 1.452zM101.53 23.888c-1.45 0-2.608-.184-3.637-.497v-2.883c.974.35 2.333.606 3.251.606.864 0 1.231-.367 1.231-.826 0-.826-1.194-.826-2.312-1.23-1.25-.442-2.591-.992-2.591-3.16 0-2.223 1.359-3.747 4.241-3.747 1.176 0 2.296.166 3.251.46v2.754c-.862-.275-2.056-.44-2.791-.44-.936 0-1.323.348-1.323.753 0 .716.938.716 1.984 1.029 1.324.386 2.81.882 2.81 3.27 0 2.295-1.193 3.91-4.113 3.91M110.786 15.071v4.923c0 .717.35 1.028 1.158 1.028.275 0 .845-.054 1.047-.128v2.59c-.403.202-1.25.349-2.13.349-2.462 0-3.62-1.414-3.62-3.618V15.07h-1.064v-2.699h1.23l.02-2.241 3.36-.331v2.572h2.332v2.7h-2.333zM122.1 9.03l-1.836 2.369h-2.627l.827-2.37h3.637zm-3.086 12.084c1.213 0 1.635-.588 1.635-3.067 0-2.516-.422-3.067-1.635-3.067-1.229 0-1.652.55-1.652 3.067 0 2.498.441 3.067 1.652 3.067zm-.017 2.755c-3.674 0-5.308-1.708-5.308-5.822s1.652-5.877 5.325-5.877c3.693 0 5.29 1.763 5.29 5.877s-1.597 5.822-5.307 5.822zM130.567 15.164c-.625 0-1.157.312-1.47.807v4.077c.295.424.772.772 1.489.772 1.028 0 1.578-.46 1.578-2.791 0-2.516-.514-2.865-1.597-2.865zm-1.47-1.929c.753-.772 1.746-1.047 2.683-1.047 2.478 0 4.04 1.819 4.04 5.767 0 4.06-1.36 5.877-4.28 5.877-1.249 0-2.387-.55-3.085-1.432h-.11l-.386 1.212h-2.388V9.195l3.527-.33v2.644c0 .312-.13 1.726-.13 1.726h.13zM142.524 20.416v-1.56a5.23 5.23 0 0 0-.974-.11c-1.25 0-1.617.55-1.617 1.247 0 .68.478 1.103 1.23 1.103.552 0 1.03-.312 1.36-.68zm-4.922-7.696s1.541-.569 3.856-.569c2.314 0 4.573.68 4.573 4.61v6.851h-2.443l-.403-1.212h-.11s-.938 1.45-2.884 1.45c-2.077 0-3.564-1.1-3.564-3.599 0-2.645 1.745-3.765 4.188-3.765.699 0 1.395.11 1.709.184v-.35c0-.679-.331-1.34-1.855-1.34-1.526 0-3.067.496-3.067.496V12.72zM147.684 23.612V9.195l3.582-.33v14.747zM115.695 34.182c0 .648-.19 1.159-.57 1.53-.38.371-.92.557-1.614.557-.434 0-.806-.034-1.122-.1a3.223 3.223 0 0 1-.914-.344v-.905c.281.17.575.294.88.369.305.075.634.113.989.113.453 0 .793-.1 1.023-.3.23-.2.344-.487.344-.862 0-.281-.08-.5-.245-.653a1.901 1.901 0 0 0-.616-.38 8.477 8.477 0 0 0-.797-.27 3.756 3.756 0 0 1-.796-.329 1.865 1.865 0 0 1-.616-.557c-.163-.232-.245-.549-.245-.949 0-.27.044-.522.132-.757.089-.237.225-.442.409-.615.183-.174.417-.312.698-.414.282-.102.62-.151 1.014-.151.334 0 .647.029.939.087.293.06.55.135.774.227v.846a4.406 4.406 0 0 0-.82-.227 4.99 4.99 0 0 0-.844-.068c-.243 0-.448.029-.615.083-.167.056-.304.131-.408.226a.834.834 0 0 0-.226.325 1.07 1.07 0 0 0-.069.389c0 .262.081.465.246.61.163.144.369.263.613.354.247.093.513.177.798.256.286.078.551.19.798.335.246.142.45.337.615.58.163.243.245.573.245.994M116.974 29.282h3.846v.865h-2.863v2.009h2.608v.865h-2.608v2.262h2.863v.866h-3.846zM127.147 35.874a4.768 4.768 0 0 1-.969.285c-.369.073-.758.11-1.165.11-.545 0-1.01-.07-1.398-.208a2.243 2.243 0 0 1-.959-.643c-.253-.293-.437-.662-.555-1.108-.119-.446-.178-.974-.178-1.584 0-1.24.256-2.144.767-2.712.512-.566 1.321-.85 2.431-.85.354 0 .705.03 1.053.094.348.062.655.142.925.24v.857a4.508 4.508 0 0 0-.915-.242 6.413 6.413 0 0 0-1.015-.083c-.399 0-.742.043-1.028.127-.284.086-.52.232-.703.438-.183.206-.318.483-.403.827-.085.345-.128.776-.128 1.293 0 .506.038.93.113 1.27.076.34.197.616.365.826.166.21.382.361.643.453.262.092.582.138.956.138.23 0 .44-.012.634-.035a4.37 4.37 0 0 0 .537-.093v-2.076h-1.368v-.806h2.351l.01 3.482zM133.73 33.67c0 .898-.227 1.557-.678 1.972-.454.418-1.097.626-1.93.626s-1.476-.208-1.928-.626c-.452-.415-.679-1.074-.679-1.972v-4.388h.984v4.408c0 .596.131 1.032.393 1.304.263.272.673.407 1.23.407.558 0 .968-.135 1.23-.407.262-.272.395-.708.395-1.304v-4.408h.983v4.388zM138.807 31.279c0-.413-.098-.705-.296-.876-.196-.17-.511-.255-.944-.255h-1.397v2.331h1.368c.44 0 .76-.09.964-.27.204-.18.305-.49.305-.93m.983-.04c0 .506-.115.919-.344 1.24-.23.323-.56.549-.993.68l1.79 2.99h-1.16l-1.624-2.863h-1.289v2.864h-.983v-6.868h2.4c.754 0 1.31.16 1.667.483.358.32.536.813.536 1.474M145.675 32.706c0-.525-.033-.96-.098-1.305-.066-.343-.172-.617-.32-.82a1.177 1.177 0 0 0-.576-.429 2.661 2.661 0 0 0-.866-.122c-.335 0-.62.04-.857.122a1.181 1.181 0 0 0-.576.429c-.146.203-.255.477-.323.82-.07.346-.103.78-.103 1.305 0 .525.033.959.103 1.303.068.345.177.62.323.827.15.206.34.353.576.438.238.085.522.127.857.127.334 0 .62-.042.855-.127.238-.085.43-.232.575-.438.15-.206.257-.482.326-.827a6.83 6.83 0 0 0 .104-1.303m.984 0c0 .63-.054 1.17-.158 1.623-.104.452-.27.822-.497 1.108-.226.285-.52.495-.88.628-.361.135-.798.203-1.31.203-.504 0-.937-.068-1.298-.203a1.988 1.988 0 0 1-.886-.633c-.23-.288-.396-.657-.501-1.107-.106-.45-.156-.99-.156-1.62 0-.629.05-1.167.156-1.612.105-.446.272-.813.501-1.098.231-.285.524-.495.88-.63.36-.134.793-.2 1.305-.2.51 0 .948.066 1.309.2.36.135.654.345.88.63.227.285.393.652.497 1.098.104.445.158.983.158 1.613M151.951 34.182c0 .648-.189 1.159-.57 1.53-.38.371-.919.557-1.613.557-.433 0-.807-.034-1.122-.1a3.229 3.229 0 0 1-.915-.344v-.905c.281.17.575.294.881.369.304.075.633.113.99.113.45 0 .793-.1 1.022-.3.229-.2.344-.487.344-.862 0-.281-.082-.5-.246-.653a1.907 1.907 0 0 0-.615-.38 8.57 8.57 0 0 0-.797-.27 3.744 3.744 0 0 1-.797-.329 1.852 1.852 0 0 1-.614-.557c-.164-.232-.247-.549-.247-.949 0-.27.044-.522.134-.757.087-.237.224-.442.408-.615.184-.174.417-.312.698-.414a3 3 0 0 1 1.013-.151c.335 0 .648.029.941.087.29.06.548.135.772.227v.846a4.408 4.408 0 0 0-1.663-.295c-.244 0-.449.029-.616.083a1.14 1.14 0 0 0-.408.226.867.867 0 0 0-.227.325 1.11 1.11 0 0 0-.068.389c0 .262.082.465.245.61.165.144.37.263.617.354.244.093.512.177.796.256.285.078.552.19.797.335.246.142.45.337.615.58.164.243.245.573.245.994" mask="url(#b)"/>
    </g>
</svg>
