<svg id="Capa_1" data-name="Capa 1" xmlns="http://www.w3.org/2000/svg" viewBox="0 0 138.55 43.08"><defs><style>.cls-1,.cls-2{fill:#801d45;}.cls-1{fill-rule:evenodd;}</style></defs><title>Sancor</title><path class="cls-1" d="M23.13,2.82A18.68,18.68,0,0,1,41.48,18.14H27.78l-2.1-4.93L23,6.85l-2.71,6.36-2.7,6.36H41.68a18.29,18.29,0,0,1,.11,2,18.65,18.65,0,0,1-37,3.63H18l2.09,5,2.7,6.39,2.69-6.39,2.69-6.39H4.61a20.17,20.17,0,0,1-.13-2.21A18.68,18.68,0,0,1,23.13,2.82Z"/><path class="cls-2" d="M52.18,19.42a10.41,10.41,0,0,1-2.5-.27,12.69,12.69,0,0,1-2-.69v-3H48A7.19,7.19,0,0,0,50,16.73a6.19,6.19,0,0,0,2.18.42,5.47,5.47,0,0,0,.7-.06,2,2,0,0,0,.7-.18,1.53,1.53,0,0,0,.55-.39,1,1,0,0,0,.22-.67.94.94,0,0,0-.36-.76,2.32,2.32,0,0,0-.88-.42c-.42-.12-.87-.22-1.35-.32A9.64,9.64,0,0,1,50.44,14a4.24,4.24,0,0,1-2.07-1.36,3.6,3.6,0,0,1-.62-2.15,3.34,3.34,0,0,1,1.47-2.82A6.08,6.08,0,0,1,52.9,6.57a11,11,0,0,1,2.21.22,10,10,0,0,1,2,.61v2.84H56.8a6.28,6.28,0,0,0-1.69-1,5.35,5.35,0,0,0-2-.41,4,4,0,0,0-.73.06,2.69,2.69,0,0,0-.68.22,1.28,1.28,0,0,0-.5.39.86.86,0,0,0-.22.58.93.93,0,0,0,.34.76,3.5,3.5,0,0,0,1.3.5l1.2.27A12.91,12.91,0,0,1,55,12a4.19,4.19,0,0,1,1.92,1.26,3.25,3.25,0,0,1,.62,2.07,3.57,3.57,0,0,1-1.45,3,6.26,6.26,0,0,1-3.93,1.12Zm9.11-.22L65.48,6.79h3.4l4.2,12.41H69.87l-.77-2.51H65.17L64.4,19.2Zm7.13-4.78L67.14,10.3l-1.28,4.12ZM88,19.2H85l-4.8-8.65V19.2H77.37V6.79H81.2l4,7.11V6.79H88V19.2Zm10.44.24A5.92,5.92,0,0,1,94,17.75,6.56,6.56,0,0,1,92.39,13,6.6,6.6,0,0,1,94,8.29a5.76,5.76,0,0,1,4.43-1.75,9,9,0,0,1,1.33.08,7.93,7.93,0,0,1,1.14.23,6.77,6.77,0,0,1,.92.35c.33.14.6.26.81.37v3h-.32l-.56-.48a8.78,8.78,0,0,0-.78-.54,5.54,5.54,0,0,0-1-.45A3.33,3.33,0,0,0,99,8.87a3.55,3.55,0,0,0-1.24.22,3,3,0,0,0-1.07.73,3.54,3.54,0,0,0-.76,1.28A5.51,5.51,0,0,0,95.6,13,5.22,5.22,0,0,0,95.91,15a3.65,3.65,0,0,0,.81,1.27,2.92,2.92,0,0,0,1.08.67,3.5,3.5,0,0,0,2.36,0,4.58,4.58,0,0,0,.94-.45,5.49,5.49,0,0,0,.73-.52c.22-.18.4-.33.55-.47h.29v2.91l-.79.37a7.36,7.36,0,0,1-.93.34,9.09,9.09,0,0,1-1.09.27,8.34,8.34,0,0,1-1.4.09Zm20.29-6.61a6.68,6.68,0,0,1-1.61,4.73,6.45,6.45,0,0,1-8.81,0,6.69,6.69,0,0,1-1.6-4.71,6.71,6.71,0,0,1,1.6-4.73,6.46,6.46,0,0,1,8.81,0,6.72,6.72,0,0,1,1.61,4.74Zm-3.21,0a6.88,6.88,0,0,0-.23-1.89,3.91,3.91,0,0,0-.61-1.28,2.39,2.39,0,0,0-.91-.73,2.7,2.7,0,0,0-1-.22,2.52,2.52,0,0,0-1,.21,2.36,2.36,0,0,0-.9.73,3.64,3.64,0,0,0-.62,1.28,6.68,6.68,0,0,0-.24,1.91,6.45,6.45,0,0,0,.23,1.9,3.89,3.89,0,0,0,.61,1.26,2.37,2.37,0,0,0,.91.73,2.59,2.59,0,0,0,1.06.23,2.48,2.48,0,0,0,1.06-.24,2.36,2.36,0,0,0,.9-.74,4.1,4.1,0,0,0,.61-1.26,6.53,6.53,0,0,0,.22-1.89Zm18.53,6.38h-3.81l-3.45-4.56H125.7V19.2h-3.1V6.79h5a10.53,10.53,0,0,1,1.8.13,3.77,3.77,0,0,1,1.42.54,3.19,3.19,0,0,1,1.05,1.08,3.07,3.07,0,0,1,.4,1.66,3.85,3.85,0,0,1-.65,2.31,4.53,4.53,0,0,1-1.72,1.41l4.18,5.28Zm-5-8.62a1.66,1.66,0,0,0-.18-.8,1.18,1.18,0,0,0-.59-.53,2.21,2.21,0,0,0-.65-.15,7.52,7.52,0,0,0-.89,0h-1v3.35h.89a6.8,6.8,0,0,0,1.1-.08,1.75,1.75,0,0,0,.77-.34,1.39,1.39,0,0,0,.44-.56,2.06,2.06,0,0,0,.15-.85Z"/><path class="cls-2" d="M52.54,36.53a11.35,11.35,0,0,1-2.62-.27,14.92,14.92,0,0,1-2.11-.67V32.67h.3a7.38,7.38,0,0,0,2.16,1.2,6.73,6.73,0,0,0,2.28.42,6,6,0,0,0,.74-.06,2.16,2.16,0,0,0,.73-.18,1.49,1.49,0,0,0,.58-.39.89.89,0,0,0,.24-.66.91.91,0,0,0-.39-.75,2.35,2.35,0,0,0-.92-.41c-.44-.11-.91-.22-1.41-.32a9.06,9.06,0,0,1-1.41-.36,4.36,4.36,0,0,1-2.17-1.35,3.33,3.33,0,0,1-.65-2.12,3.23,3.23,0,0,1,1.54-2.78,6.69,6.69,0,0,1,3.87-1.07,12.9,12.9,0,0,1,2.31.22,10.4,10.4,0,0,1,2.06.61v2.8h-.29a6.22,6.22,0,0,0-1.77-1,5.85,5.85,0,0,0-2.14-.41,4.54,4.54,0,0,0-.77.06,3.18,3.18,0,0,0-.71.22,1.46,1.46,0,0,0-.53.39.83.83,0,0,0-.22.57.9.9,0,0,0,.35.75,3.6,3.6,0,0,0,1.37.49l1.26.27a11.82,11.82,0,0,1,1.29.37,4.36,4.36,0,0,1,2,1.23,3.08,3.08,0,0,1,.66,2,3.46,3.46,0,0,1-1.53,2.94,6.85,6.85,0,0,1-4.12,1.11Zm7.32-.22V24.06h8.81V26.4H63.12v2.14h5.12v2.35H63.12V34h5.55v2.34Zm21.91-.7a16.72,16.72,0,0,1-2.23.64,12,12,0,0,1-2.7.32A7,7,0,0,1,72,34.9a6.07,6.07,0,0,1-1.82-4.73A6,6,0,0,1,72,25.55a6.92,6.92,0,0,1,5-1.74,10.15,10.15,0,0,1,2.66.29,15.11,15.11,0,0,1,2.12.8v2.87h-.3l-.68-.49a8.55,8.55,0,0,0-.86-.54,6.77,6.77,0,0,0-1.14-.45,4.61,4.61,0,0,0-1.36-.19,4.39,4.39,0,0,0-1.53.25,3.55,3.55,0,0,0-1.24.76,3.72,3.72,0,0,0-.82,1.25,4.79,4.79,0,0,0-.3,1.77,4.05,4.05,0,0,0,1.15,3.17,4.54,4.54,0,0,0,3.13,1h.42l.41,0V31.88H76.07V29.57h5.7v6Zm7.73,1a6.07,6.07,0,0,1-4-1.2,4.31,4.31,0,0,1-1.41-3.49V24.06h3.28V31.7a3,3,0,0,0,.51,1.9,2,2,0,0,0,1.66.62,2.08,2.08,0,0,0,1.65-.6,2.88,2.88,0,0,0,.53-1.92V24.06H95v7.82a4.38,4.38,0,0,1-1.38,3.47,6,6,0,0,1-4.08,1.22Zm20-.26h-4l-3.62-4.5h-1.16v4.5H97.46V24.06h5.24a11.68,11.68,0,0,1,1.89.13,4.28,4.28,0,0,1,1.49.53,3.42,3.42,0,0,1,1.11,1.06,3,3,0,0,1,.41,1.64,3.61,3.61,0,0,1-.67,2.28,4.82,4.82,0,0,1-1.81,1.4l4.38,5.21Zm-5.27-8.51A1.52,1.52,0,0,0,104,27a1.21,1.21,0,0,0-.62-.52,2.34,2.34,0,0,0-.68-.15,8.15,8.15,0,0,0-.93,0h-1.09v3.31h.93a7.53,7.53,0,0,0,1.16-.08,1.71,1.71,0,0,0,.8-.34,1.38,1.38,0,0,0,.47-.55,2,2,0,0,0,.15-.84Zm18.1,2.39a6.35,6.35,0,0,1-1.69,4.67,7.08,7.08,0,0,1-9.25,0,6.38,6.38,0,0,1-1.68-4.65,6.36,6.36,0,0,1,1.68-4.66,7.09,7.09,0,0,1,9.25,0,6.35,6.35,0,0,1,1.69,4.67Zm-3.37,0a6.27,6.27,0,0,0-.24-1.86,3.65,3.65,0,0,0-.65-1.26,2.32,2.32,0,0,0-.95-.72,2.76,2.76,0,0,0-1.09-.22,3,3,0,0,0-1.1.2,2.55,2.55,0,0,0-1,.72,3.69,3.69,0,0,0-.65,1.27,6.44,6.44,0,0,0-.25,1.88,6.16,6.16,0,0,0,.24,1.87,3.6,3.6,0,0,0,.65,1.25,2.51,2.51,0,0,0,1,.73,3,3,0,0,0,1.11.22,2.79,2.79,0,0,0,1.12-.24,2.33,2.33,0,0,0,.93-.73,3.85,3.85,0,0,0,.65-1.24,6.38,6.38,0,0,0,.23-1.87Zm9.33,6.35a11.44,11.44,0,0,1-2.63-.27,15.2,15.2,0,0,1-2.1-.67V32.67h.3a7.46,7.46,0,0,0,2.15,1.2,6.83,6.83,0,0,0,2.29.42,5.87,5.87,0,0,0,.73-.06,2.16,2.16,0,0,0,.74-.18,1.56,1.56,0,0,0,.58-.39.89.89,0,0,0,.23-.66.93.93,0,0,0-.38-.75,2.42,2.42,0,0,0-.92-.41c-.44-.11-.91-.22-1.42-.32a9.68,9.68,0,0,1-1.41-.36,4.37,4.37,0,0,1-2.16-1.35,3.33,3.33,0,0,1-.66-2.12,3.24,3.24,0,0,1,1.55-2.78A6.65,6.65,0,0,1,129,23.84a12.93,12.93,0,0,1,2.32.22,10.1,10.1,0,0,1,2,.61v2.8h-.28a6.36,6.36,0,0,0-1.77-1,5.89,5.89,0,0,0-2.14-.41,4.46,4.46,0,0,0-.77.06,3.1,3.1,0,0,0-.72.22,1.43,1.43,0,0,0-.52.39.85.85,0,0,0-.23.57.91.91,0,0,0,.36.75,3.61,3.61,0,0,0,1.36.49l1.27.27a11.82,11.82,0,0,1,1.29.37,4.37,4.37,0,0,1,2,1.23,3.08,3.08,0,0,1,.66,2,3.45,3.45,0,0,1-1.52,2.94,6.87,6.87,0,0,1-4.12,1.11Z"/></svg>